<svg width="184" height="68" viewBox="0 0 184 68" fill="none" xmlns="http://www.w3.org/2000/svg">
<rect x="32" y="26" width="152" height="36" rx="4" fill="black" fill-opacity="0.05"/>
<g filter="url(#filter0_d)">
<rect x="16" y="10" width="152" height="36" rx="4" fill="white"/>
</g>
<rect x="16.5" y="10.5" width="151" height="35" rx="3.5" stroke="black" stroke-opacity="0.08"/>
<rect x="24" y="18" width="20" height="20" rx="10" fill="black" fill-opacity="0.05"/>
<rect x="96" y="23.9995" width="64" height="8" rx="2" fill="black" fill-opacity="0.05"/>
<rect x="60" y="23.9995" width="32" height="8" rx="2" fill="black" fill-opacity="0.05"/>
<g filter="url(#filter1_d)">
<path fill-rule="evenodd" clip-rule="evenodd" d="M96.6727 23.8478C97.16 23.6624 98.1213 23.7759 98.3751 24.3404C98.5913 24.8215 98.777 25.6327 98.7872 25.4598C98.8116 25.0756 98.7628 24.2446 98.9263 23.8103C99.045 23.4937 99.2785 23.1959 99.6226 23.0907C99.9119 23.0012 100.252 22.9699 100.552 23.0335C100.87 23.1001 101.204 23.3323 101.329 23.5531C101.696 24.2019 101.703 25.5306 101.72 25.4598C101.785 25.1766 101.791 24.18 102.007 23.8103C102.15 23.5656 102.512 23.3469 102.704 23.3115C103.003 23.2574 103.37 23.2407 103.683 23.3032C103.936 23.3542 104.278 23.6614 104.37 23.8103C104.593 24.1685 104.717 25.1807 104.755 25.5369C104.771 25.6837 104.83 25.1276 105.052 24.7704C105.465 24.105 106.924 23.9759 106.979 25.4359C107.005 26.1169 106.999 26.0857 106.999 26.5439C106.999 27.0812 106.987 27.4061 106.959 27.7956C106.928 28.2111 106.841 29.1535 106.714 29.6096C106.627 29.9231 106.338 30.6281 106.051 31.0509C106.051 31.0509 104.961 32.3526 104.842 32.9378C104.724 33.5241 104.763 33.5283 104.739 33.9427C104.715 34.3582 104.862 34.9039 104.862 34.9039C104.862 34.9039 104.048 35.0122 103.609 34.9393C103.212 34.8747 102.721 34.0646 102.594 33.8167C102.419 33.4751 102.047 33.5408 101.902 33.7928C101.674 34.1916 101.182 34.907 100.836 34.9518C100.157 35.0393 98.7496 34.983 97.6482 34.9726C97.6482 34.9726 97.836 33.9198 97.4178 33.5585C97.1082 33.2877 96.5753 32.742 96.2565 32.4546L95.412 31.4955C95.1247 31.1206 94.3948 30.5281 94.1502 29.4284C93.934 28.4537 93.9553 27.9757 94.1878 27.5852C94.4233 27.1885 94.8679 26.9719 95.0547 26.9344C95.2658 26.8906 95.7571 26.8938 95.9429 26.9989C96.1692 27.127 96.2606 27.1645 96.4382 27.4061C96.6717 27.7258 96.755 27.881 96.6545 27.5321C96.5773 27.2593 96.3276 26.9125 96.2139 26.522C96.1033 26.1461 95.8068 25.54 95.8282 24.9329C95.8363 24.7028 95.9327 24.13 96.6727 23.8478Z" fill="white"/>
<path fill-rule="evenodd" clip-rule="evenodd" d="M96.6727 23.8478C97.16 23.6624 98.1213 23.7759 98.3751 24.3404C98.5913 24.8215 98.777 25.6327 98.7872 25.4598C98.8116 25.0756 98.7628 24.2446 98.9263 23.8103C99.045 23.4937 99.2785 23.1959 99.6226 23.0907C99.9119 23.0012 100.252 22.9699 100.552 23.0335C100.87 23.1001 101.204 23.3323 101.329 23.5531C101.696 24.2019 101.703 25.5306 101.72 25.4598C101.785 25.1766 101.791 24.18 102.007 23.8103C102.15 23.5656 102.512 23.3469 102.704 23.3115C103.003 23.2574 103.37 23.2407 103.683 23.3032C103.936 23.3542 104.278 23.6614 104.37 23.8103C104.593 24.1685 104.717 25.1807 104.755 25.5369C104.771 25.6837 104.83 25.1276 105.052 24.7704C105.465 24.105 106.924 23.9759 106.979 25.4359C107.005 26.1169 106.999 26.0857 106.999 26.5439C106.999 27.0812 106.987 27.4061 106.959 27.7956C106.928 28.2111 106.841 29.1535 106.714 29.6096C106.627 29.9231 106.338 30.6281 106.051 31.0509C106.051 31.0509 104.961 32.3526 104.842 32.9378C104.724 33.5241 104.763 33.5283 104.739 33.9427C104.715 34.3582 104.862 34.9039 104.862 34.9039C104.862 34.9039 104.048 35.0122 103.609 34.9393C103.212 34.8747 102.721 34.0646 102.594 33.8167C102.419 33.4751 102.047 33.5408 101.902 33.7928C101.674 34.1916 101.182 34.907 100.836 34.9518C100.157 35.0393 98.7496 34.983 97.6482 34.9726C97.6482 34.9726 97.836 33.9198 97.4178 33.5585C97.1082 33.2877 96.5753 32.742 96.2565 32.4546L95.412 31.4955C95.1247 31.1206 94.3948 30.5281 94.1502 29.4284C93.934 28.4537 93.9553 27.9757 94.1878 27.5852C94.4233 27.1885 94.8679 26.9719 95.0547 26.9344C95.2658 26.8906 95.7571 26.8938 95.9429 26.9989C96.1692 27.127 96.2606 27.1645 96.4382 27.4061C96.6717 27.7258 96.755 27.881 96.6545 27.5321C96.5773 27.2593 96.3276 26.9125 96.2139 26.522C96.1033 26.1461 95.8068 25.54 95.8282 24.9329C95.8363 24.7028 95.9327 24.13 96.6727 23.8478V23.8478Z" stroke="black" stroke-width="0.75" stroke-linejoin="round"/>
<path d="M103.771 31.8645V28.2625" stroke="black" stroke-width="0.75" stroke-linecap="round"/>
<path d="M101.725 31.8766L101.709 28.26" stroke="black" stroke-width="0.75" stroke-linecap="round"/>
<path d="M99.6992 28.293L99.7205 31.8607" stroke="black" stroke-width="0.75" stroke-linecap="round"/>
</g>
<defs>
<filter id="filter0_d" x="0" y="0" width="184" height="68" filterUnits="userSpaceOnUse" color-interpolation-filters="sRGB">
<feFlood flood-opacity="0" result="BackgroundImageFix"/>
<feColorMatrix in="SourceAlpha" type="matrix" values="0 0 0 0 0 0 0 0 0 0 0 0 0 0 0 0 0 0 127 0"/>
<feOffset dy="6"/>
<feGaussianBlur stdDeviation="8"/>
<feColorMatrix type="matrix" values="0 0 0 0 0 0 0 0 0 0 0 0 0 0 0 0 0 0 0.16 0"/>
<feBlend mode="normal" in2="BackgroundImageFix" result="effect1_dropShadow"/>
<feBlend mode="normal" in="SourceGraphic" in2="effect1_dropShadow" result="shape"/>
</filter>
<filter id="filter1_d" x="91.625" y="22.625" width="17.75" height="16.75" filterUnits="userSpaceOnUse" color-interpolation-filters="sRGB">
<feFlood flood-opacity="0" result="BackgroundImageFix"/>
<feColorMatrix in="SourceAlpha" type="matrix" values="0 0 0 0 0 0 0 0 0 0 0 0 0 0 0 0 0 0 127 0"/>
<feOffset dy="2"/>
<feGaussianBlur stdDeviation="1"/>
<feColorMatrix type="matrix" values="0 0 0 0 0 0 0 0 0 0 0 0 0 0 0 0 0 0 0.24 0"/>
<feBlend mode="normal" in2="BackgroundImageFix" result="effect1_dropShadow"/>
<feBlend mode="normal" in="SourceGraphic" in2="effect1_dropShadow" result="shape"/>
</filter>
</defs>
</svg>
