<svg width="32" height="32" viewBox="0 0 32 32" fill="none" xmlns="http://www.w3.org/2000/svg">
<g opacity="0.16">
<rect width="32" height="32" rx="16" fill="black" fill-opacity="0.87"/>
</g>
<path fill-rule="evenodd" clip-rule="evenodd" d="M16 13.3334C16.7333 13.3334 17.3333 12.7334 17.3333 12C17.3333 11.2667 16.7333 10.6667 16 10.6667C15.2666 10.6667 14.6666 11.2667 14.6666 12C14.6666 12.7334 15.2666 13.3334 16 13.3334ZM16 14.6667C15.2666 14.6667 14.6666 15.2667 14.6666 16C14.6666 16.7334 15.2666 17.3334 16 17.3334C16.7333 17.3334 17.3333 16.7334 17.3333 16C17.3333 15.2667 16.7333 14.6667 16 14.6667ZM16 18.6667C15.2666 18.6667 14.6666 19.2667 14.6666 20C14.6666 20.7334 15.2666 21.3334 16 21.3334C16.7333 21.3334 17.3333 20.7334 17.3333 20C17.3333 19.2667 16.7333 18.6667 16 18.6667Z" fill="black" fill-opacity="0.54"/>
</svg>
